<?xml version="1.0" encoding="UTF-8" standalone="no"?>
<svg
   xmlns:dc="http://purl.org/dc/elements/1.1/"
   xmlns:cc="http://creativecommons.org/ns#"
   xmlns:rdf="http://www.w3.org/1999/02/22-rdf-syntax-ns#"
   xmlns:svg="http://www.w3.org/2000/svg"
   xmlns="http://www.w3.org/2000/svg"
   width="512"
   height="512"
   viewBox="0 0 135.46666 135.46667"
   version="1.1"
   id="svg8">
  <defs
     id="defs2" />
  <metadata
     id="metadata5">
    <rdf:RDF>
      <cc:Work
         rdf:about="">
        <dc:format>image/svg+xml</dc:format>
        <dc:type
           rdf:resource="http://purl.org/dc/dcmitype/StillImage" />
        <dc:title></dc:title>
      </cc:Work>
    </rdf:RDF>
  </metadata>
  <g
     id="layer1">
    <g
       aria-label="ξ"
       transform="matrix(0,1,1,0,0,0)"
       id="text841-1-6-4-7-7-9-3"
       style="font-style:normal;font-weight:normal;font-size:152.689px;line-height:1.25;font-family:sans-serif;letter-spacing:0px;word-spacing:0px;fill:#0a111b;fill-opacity:1;stroke:none;stroke-width:3.81722">
      <path
         d="m 57.705653,23.037505 q 9.170287,-4.398755 14.98559,-6.038969 5.815304,-1.714769 11.183276,-1.714769 5.591638,0 8.424735,1.491104 2.907651,1.491103 2.907651,4.249645 0,3.354982 -4.62242,5.144307 -4.547866,1.789324 -13.643597,1.789324 -6.188079,0 -17.445911,-2.1621 -0.29822,-0.07456 -0.670996,-0.07456 -0.372776,-0.07456 -0.447331,-0.07456 h -0.149111 l -0.14911,0.07456 q -4.622421,4.175089 -6.784521,8.051958 -2.1621,3.802314 -2.1621,7.679183 0,4.622421 2.087545,7.753738 2.1621,3.056762 7.157297,5.666193 l 0.07456,0.07456 h 0.14911 q 7.306407,-1.341994 13.121711,-2.01299 5.815303,-0.596441 10.586834,-0.596441 7.977404,0 11.630608,1.565658 3.727758,1.491104 3.727758,4.622421 0,3.354983 -4.3242,5.144307 -4.249645,1.714769 -13.047155,1.714769 -6.411745,0 -12.450714,-1.118328 -5.964414,-1.118327 -12.077938,-3.504093 h -0.149111 -0.14911 q -5.889859,2.683986 -9.393952,7.679183 -3.504093,4.920641 -3.504093,10.735945 0,7.828293 5.442528,11.630607 5.517083,3.727759 16.774914,3.727759 1.491103,0 4.920641,-0.07456 3.504093,-0.07456 5.442528,-0.07456 13.867262,0 19.980786,4.17509 6.18808,4.175094 6.18808,13.270824 0,10.43772 -8.573845,16.99858 -8.49929,6.63541 -22.515663,6.63541 -6.859076,0 -9.990393,-1.56566 -3.056762,-1.56566 -3.056762,-4.77153 0,-1.41655 1.192883,-2.38577 1.192883,-0.96922 2.982207,-0.96922 1.938434,0 7.902848,1.78933 6.038969,1.78932 10.586835,1.78932 7.530072,0 11.705162,-3.42954 4.249645,-3.42953 4.249645,-9.31939 0,-5.44253 -3.727759,-7.60463 -3.653203,-2.08754 -13.419931,-2.08754 -3.802314,0 -8.350179,0.14911 -4.547866,0.14911 -5.218863,0.14911 -12.9726,0 -20.353562,-6.33719 -7.380962,-6.411748 -7.380962,-17.595024 0,-7.530073 3.653203,-13.569042 3.727759,-6.038969 10.959611,-10.51228 l 0.447331,-0.223665 -0.447331,-0.372776 q -3.802314,-2.982207 -5.740749,-6.709966 -1.863879,-3.727758 -1.863879,-8.275624 0,-5.293417 2.311211,-9.543062 2.31121,-4.3242 7.455517,-8.49929 l 0.596441,-0.521886 -0.745551,-0.14911 q -9.990394,-2.1621 -14.911035,-5.740749 -4.920642,-3.653203 -4.920642,-8.573845 0,-4.9951963 4.696976,-7.7537377 4.771531,-2.833096587873 13.569042,-2.833096587873 2.907652,0 5.069752,0.372775867873 2.236655,0.29822069 4.100534,0.82010692 L 61.060636,3.6531602 58.451205,3.3549395 q -2.683986,-0.2982207 -3.354983,-0.2982207 -5.889859,0 -8.946621,2.0875449 -2.982207,2.0129897 -2.982207,6.1135243 0,4.17509 3.578649,7.157297 3.578648,2.907651 10.735945,4.62242 h 0.14911 z"
         style="font-style:normal;font-variant:normal;font-weight:normal;font-stretch:normal;font-size:152.689px;font-family:OpenSymbol;-inkscape-font-specification:'OpenSymbol, Normal';font-variant-ligatures:normal;font-variant-caps:normal;font-variant-numeric:normal;font-variant-east-asian:normal;fill:#0a111b;fill-opacity:1;stroke-width:3.81722"
         id="path832" />
    </g>
  </g>
</svg>
