<?xml version="1.0" encoding="UTF-8"?>
<svg width="512" height="512" version="1.1" viewBox="0 0 135.47 135.47" xmlns="http://www.w3.org/2000/svg" xmlns:cc="http://creativecommons.org/ns#" xmlns:dc="http://purl.org/dc/elements/1.1/" xmlns:rdf="http://www.w3.org/1999/02/22-rdf-syntax-ns#">
 <metadata>
  <rdf:RDF>
   <cc:Work rdf:about="">
    <dc:format>image/svg+xml</dc:format>
    <dc:type rdf:resource="http://purl.org/dc/dcmitype/StillImage"/>
    <dc:title/>
   </cc:Work>
  </rdf:RDF>
 </metadata>
 <g fill="#0a111b" aria-label="ξ">
  <path d="m57.706 23.038q9.1703-4.3988 14.986-6.039 5.8153-1.7148 11.183-1.7148 5.5916 0 8.4247 1.4911 2.9077 1.4911 2.9077 4.2496 0 3.355-4.6224 5.1443-4.5479 1.7893-13.644 1.7893-6.1881 0-17.446-2.1621-0.29822-0.07456-0.671-0.07456-0.37278-0.07456-0.44733-0.07456h-0.14911l-0.14911 0.07456q-4.6224 4.1751-6.7845 8.052-2.1621 3.8023-2.1621 7.6792 0 4.6224 2.0875 7.7537 2.1621 3.0568 7.1573 5.6662l0.07456 0.07456h0.14911q7.3064-1.342 13.122-2.013 5.8153-0.59644 10.587-0.59644 7.9774 0 11.631 1.5657 3.7278 1.4911 3.7278 4.6224 0 3.355-4.3242 5.1443-4.2496 1.7148-13.047 1.7148-6.4117 0-12.451-1.1183-5.9644-1.1183-12.078-3.5041h-0.29822q-5.8899 2.684-9.394 7.6792-3.5041 4.9206-3.5041 10.736 0 7.8283 5.4425 11.631 5.5171 3.7278 16.775 3.7278 1.4911 0 4.9206-0.07456 3.5041-0.07456 5.4425-0.07456 13.867 0 19.981 4.1751 6.1881 4.1751 6.1881 13.271 0 10.438-8.5738 16.999-8.4993 6.6354-22.516 6.6354-6.8591 0-9.9904-1.5657-3.0568-1.5657-3.0568-4.7715 0-1.4166 1.1929-2.3858 1.1929-0.96922 2.9822-0.96922 1.9384 0 7.9028 1.7893 6.039 1.7893 10.587 1.7893 7.5301 0 11.705-3.4295 4.2496-3.4295 4.2496-9.3194 0-5.4425-3.7278-7.6046-3.6532-2.0875-13.42-2.0875-3.8023 0-8.3502 0.14911-4.5479 0.14911-5.2189 0.14911-12.973 0-20.354-6.3372-7.381-6.4117-7.381-17.595 0-7.5301 3.6532-13.569 3.7278-6.039 10.96-10.512l0.44733-0.22366-0.44733-0.37278q-3.8023-2.9822-5.7407-6.71-1.8639-3.7278-1.8639-8.2756 0-5.2934 2.3112-9.5431 2.3112-4.3242 7.4555-8.4993l0.59644-0.52189-0.74555-0.14911q-9.9904-2.1621-14.911-5.7407-4.9206-3.6532-4.9206-8.5738 0-4.9952 4.697-7.7537 4.7715-2.8331 13.569-2.8331 2.9077 0 5.0698 0.37278 2.2367 0.29822 4.1005 0.82011l-0.52189 2.4603-2.6094-0.29822q-2.684-0.29822-3.355-0.29822-5.8899 0-8.9466 2.0875-2.9822 2.013-2.9822 6.1135 0 4.1751 3.5786 7.1573 3.5786 2.9077 10.736 4.6224h0.14911z" fill="#0a111b" stroke-width="3.8172" style="font-variant-caps:normal;font-variant-east-asian:normal;font-variant-ligatures:normal;font-variant-numeric:normal"/>
 </g>
</svg>
