<?xml version="1.0" encoding="UTF-8" standalone="no"?>
<svg
   xmlns:dc="http://purl.org/dc/elements/1.1/"
   xmlns:cc="http://creativecommons.org/ns#"
   xmlns:rdf="http://www.w3.org/1999/02/22-rdf-syntax-ns#"
   xmlns:svg="http://www.w3.org/2000/svg"
   xmlns="http://www.w3.org/2000/svg"
   width="512"
   height="512"
   viewBox="0 0 135.46666 135.46667"
   version="1.1"
   id="svg8">
  <defs
     id="defs2" />
  <metadata
     id="metadata5">
    <rdf:RDF>
      <cc:Work
         rdf:about="">
        <dc:format>image/svg+xml</dc:format>
        <dc:type
           rdf:resource="http://purl.org/dc/dcmitype/StillImage" />
        <dc:title></dc:title>
      </cc:Work>
    </rdf:RDF>
  </metadata>
  <g
     id="layer1">
    <g
       aria-label="ξ"
       id="text841-1-6-4-7-7-9-3"
       style="font-style:normal;font-weight:normal;font-size:152.689px;line-height:1.25;font-family:sans-serif;letter-spacing:0px;word-spacing:0px;fill:#0a111b;fill-opacity:1;stroke:none;stroke-width:3.81722">
      <path
         d="m 57.705661,23.037505 q 9.170286,-4.398755 14.98559,-6.038969 5.815303,-1.714769 11.183276,-1.714769 5.591638,0 8.424734,1.491104 2.907652,1.491103 2.907652,4.249645 0,3.354982 -4.622421,5.144307 -4.547865,1.789324 -13.643596,1.789324 -6.18808,0 -17.445911,-2.1621 -0.298221,-0.07456 -0.670997,-0.07456 -0.372775,-0.07456 -0.447331,-0.07456 h -0.14911 l -0.14911,0.07456 q -4.622421,4.175089 -6.784521,8.051958 -2.1621,3.802314 -2.1621,7.679183 0,4.622421 2.087545,7.753738 2.1621,3.056762 7.157296,5.666193 l 0.07456,0.07456 h 0.14911 q 7.306407,-1.341994 13.12171,-2.01299 5.815304,-0.596441 10.586835,-0.596441 7.977404,0 11.630607,1.565658 3.727759,1.491104 3.727759,4.622421 0,3.354983 -4.3242,5.144307 -4.249645,1.714769 -13.047156,1.714769 -6.411744,0 -12.450714,-1.118328 -5.964413,-1.118327 -12.077938,-3.504093 h -0.14911 -0.14911 q -5.889859,2.683986 -9.393952,7.679183 -3.504093,4.920641 -3.504093,10.735945 0,7.828293 5.442527,11.630607 5.517083,3.727759 16.774914,3.727759 1.491104,0 4.920642,-0.07456 3.504093,-0.07456 5.442527,-0.07456 13.867263,0 19.980787,4.17509 6.188082,4.175094 6.188082,13.270824 0,10.43772 -8.573848,16.99858 -8.499289,6.63541 -22.515662,6.63541 -6.859076,0 -9.990393,-1.56566 -3.056762,-1.56566 -3.056762,-4.77153 0,-1.41655 1.192882,-2.38577 1.192883,-0.96922 2.982207,-0.96922 1.938435,0 7.902849,1.78933 6.038969,1.78932 10.586834,1.78932 7.530073,0 11.705163,-3.42954 4.249645,-3.42953 4.249645,-9.31939 0,-5.44253 -3.727759,-7.60463 -3.653204,-2.08754 -13.419931,-2.08754 -3.802314,0 -8.35018,0.14911 -4.547865,0.14911 -5.218862,0.14911 -12.9726,0 -20.353562,-6.33719 -7.380963,-6.411748 -7.380963,-17.595024 0,-7.530073 3.653204,-13.569042 3.727759,-6.038969 10.95961,-10.51228 l 0.447332,-0.223665 -0.447332,-0.372776 q -3.802313,-2.982207 -5.740748,-6.709966 -1.863879,-3.727758 -1.863879,-8.275624 0,-5.293417 2.31121,-9.543062 2.311211,-4.3242 7.455518,-8.49929 l 0.596441,-0.521886 -0.745552,-0.14911 q -9.990393,-2.1621 -14.911035,-5.740749 -4.920641,-3.653203 -4.920641,-8.573845 0,-4.9951963 4.696976,-7.7537377 4.771531,-2.833096587873 13.569042,-2.833096587873 2.907651,0 5.069751,0.372775867873 2.236656,0.29822069 4.100535,0.82010692 L 61.060644,3.6531602 58.451213,3.3549395 Q 55.767226,3.0567188 55.09623,3.0567188 q -5.889859,0 -8.946621,2.0875449 -2.982207,2.0129897 -2.982207,6.1135243 0,4.17509 3.578648,7.157297 3.578649,2.907651 10.735945,4.62242 h 0.149111 z"
         style="font-style:normal;font-variant:normal;font-weight:normal;font-stretch:normal;font-size:152.689px;font-family:OpenSymbol;-inkscape-font-specification:'OpenSymbol, Normal';font-variant-ligatures:normal;font-variant-caps:normal;font-variant-numeric:normal;font-variant-east-asian:normal;fill:#0a111b;fill-opacity:1;stroke-width:3.81722"
         id="path832" />
    </g>
  </g>
</svg>
